<mxfile host="app.diagrams.net" modified="2024-04-07T00:59:04.718Z" agent="Mozilla/5.0 (Windows NT 10.0; Win64; x64) AppleWebKit/537.36 (KHTML, like Gecko) Chrome/123.0.0.0 Safari/537.36" version="24.2.2" etag="hXq6Hw79mj52QtHS6vEx" type="github">
  <diagram name="페이지-1" id="DL2kLk3YzcLNuKQXPVIS">
    <mxGraphModel>
      <root>
        <mxCell id="0" />
        <mxCell id="1" parent="0" />
      </root>
    </mxGraphModel>
  </diagram>
</mxfile>
